<svg height="16" viewBox="0 0 16 16" width="16" xmlns="http://www.w3.org/2000/svg" fill="rgb(88, 106, 218)"><path d="m1 4h14c.5522847 0 1 .40701386 1 .90909091v8.18181819c0 .502077-.4477153.9090909-1 .9090909h-14c-.55228475 0-1-.4070139-1-.9090909v-8.18181819c0-.50207705.44771525-.90909091 1-.90909091zm1-3h12c.5522847 0 1 .44771525 1 1v1h-14v-1c0-.55228475.44771525-1 1-1zm6 10.5c1.38071187 0 2.5-1.1192881 2.5-2.5 0-1.38071187-1.11928813-2.5-2.5-2.5s-2.5 1.11928813-2.5 2.5c0 1.3807119 1.11928813 2.5 2.5 2.5z"/></svg>
