<svg height="16" viewBox="0 0 16 16" width="16" xmlns="http://www.w3.org/2000/svg" fill="rgb(88, 106, 218)"><path d="m1.25 4.25c-.69035594 0-1.25-.55964406-1.25-1.25s.55964406-1.25 1.25-1.25 1.25.55964406 1.25 1.25-.55964406 1.25-1.25 1.25zm0 5c-.69035594 0-1.25-.55964406-1.25-1.25s.55964406-1.25 1.25-1.25 1.25.55964406 1.25 1.25-.55964406 1.25-1.25 1.25zm0 5c-.69035594 0-1.25-.5596441-1.25-1.25s.55964406-1.25 1.25-1.25 1.25.5596441 1.25 1.25-.55964406 1.25-1.25 1.25zm3.75-12.25h10c.5522847 0 1 .44771525 1 1s-.4477153 1-1 1h-10c-.55228475 0-1-.44771525-1-1s.44771525-1 1-1zm0 5h10c.5522847 0 1 .44771525 1 1s-.4477153 1-1 1h-10c-.55228475 0-1-.44771525-1-1s.44771525-1 1-1zm0 5h10c.5522847 0 1 .4477153 1 1s-.4477153 1-1 1h-10c-.55228475 0-1-.4477153-1-1s.44771525-1 1-1z" fill-rule="evenodd"/></svg>
