<svg height="16" viewBox="0 0 16 16" width="16" xmlns="http://www.w3.org/2000/svg" fill="rgb(88, 106, 218)"><path d="m8.00065463 6.58513217 4.59196787-4.59196788c.3908857-.39088574 1.0246367-.39088574 1.4155225 0 .3908857.39088573.3908857 1.02463672 0 1.41552245l-4.59131329 4.59131326 4.59131329 4.5913136c.3908857.3908857.3908857 1.0246367 0 1.4155225-.3908858.3908857-1.0246368.3908857-1.4155225 0l-4.59196787-4.59196791-4.59196789 4.59196791c-.39088573.3908857-1.02463672.3908857-1.41552245 0-.39088574-.3908858-.39088574-1.0246368 0-1.4155225l4.59131325-4.5913136-4.59131325-4.59131326c-.39088574-.39088573-.39088574-1.02463672 0-1.41552245.39088573-.39088574 1.02463672-.39088574 1.41552245 0z" fill-rule="evenodd"/></svg>
